<?xml version="1.0" encoding="utf-8"?>
<!-- Generator: Adobe Illustrator 23.0.4, SVG Export Plug-In . SVG Version: 6.00 Build 0)  -->
<svg version="1.1" id="Layer_2" xmlns="http://www.w3.org/2000/svg" xmlns:xlink="http://www.w3.org/1999/xlink" x="0px" y="0px"
	 viewBox="0 0 500 500" style="enable-background:new 0 0 864 864;" xml:space="preserve">
<style type="text/css">
	.Arched_x0020_Green{fill:url(#SVGID_1_);stroke:#FFFFFF;stroke-width:0.25;stroke-miterlimit:1;}
	.st0{fill:#A97C50;}
	.st1{fill:#E2E3E4;}
	.st2{fill:#D55059;}
	.st3{fill:#603A17;}
	.st4{fill:#84A760;}
</style>
<linearGradient id="SVGID_1_" gradientUnits="userSpaceOnUse" x1="258.135" y1="801.0649" x2="258.8421" y2="800.3578">
	<stop  offset="0" style="stop-color:#20AC4B"/>
	<stop  offset="0.9831" style="stop-color:#19361A"/>
</linearGradient>
<path class="st0" d="M359.06,255.53c-2.39-11.55-9.87-20.93-21.23-24.69c-5.26-1.74-10.95-2.33-16.46-1.81
	c-3.02,0.29-10.53,3.87-13.06,1.29c0.08-0.39,0.26-0.74,0.52-1.06c20.79-25.64,24.8-62.11,10.04-91.65
	c-14.3-28.65-44.28-47.2-76.3-47.2c-32.02,0-61.99,18.56-76.3,47.2c-14.75,29.54-10.75,66,10.04,91.65
	c0.27,0.32,0.44,0.67,0.53,1.07c-2.62,2.67-13.16-1.46-16.84-1.46c-7.27,0-14.71,1.81-20.78,5.93
	c-12.12,8.21-17.45,26.3-11.81,39.83c6.03,14.48,23.41,20.75,38.05,20.75c5.88,0,10.85,1.19,8.31,8.13
	c-2.65,7.23-6.01,12.53-13.45,15.24c-6.46,2.36-13.53,3.06-17.69,9.26c-3.95,5.88-3.22,13.28-0.7,19.55
	c5.46,13.61,19.64,19.83,32.79,23.83c13.58,4.13,29.14,8,43.47,6.61c6.47-0.63,12.8-2.99,16.47-8.66c3.68-5.69,4.64-12.79,7.9-18.72
	c5.21,9.46,5.52,21.78,17.25,25.89c10.55,3.7,23.22,1.18,33.83-0.97c19.84-4.03,54.05-12.93,51.58-39.65
	c-1.28-13.78-13.82-13.63-23.6-18.51c-5.58-2.78-17.56-19.8-6.39-21.7c11.69-1.99,22.22-1.37,32.44-8.73
	C357.9,279.6,361.57,267.66,359.06,255.53"/>
<path class="st1" d="M359.06,255.53c-2.39-11.55-9.87-20.93-21.23-24.69c-5.26-1.74-10.95-2.33-16.46-1.81
	c-3.02,0.29-10.53,3.87-13.06,1.29c0.08-0.39,0.26-0.74,0.52-1.06c20.79-25.64,24.8-62.11,10.04-91.65
	c-14.3-28.65-44.28-47.2-76.3-47.2c-32.02,0-61.99,18.56-76.3,47.2c-14.75,29.54-10.75,66,10.04,91.65
	c0.27,0.32,0.44,0.67,0.53,1.07c-2.62,2.67-13.16-1.46-16.84-1.46c-7.27,0-14.71,1.81-20.78,5.93
	c-12.12,8.21-17.45,26.3-11.81,39.83c6.03,14.48,23.41,20.75,38.05,20.75c5.88,0,10.85,1.19,8.31,8.13
	c-2.65,7.23-6.01,12.53-13.45,15.24c-6.46,2.36-13.53,3.06-17.69,9.26c-3.95,5.88-3.22,13.28-0.7,19.55
	c5.46,13.61,19.64,19.83,32.79,23.83c13.58,4.13,29.14,8,43.47,6.61c6.47-0.63,12.8-2.99,16.47-8.66c3.68-5.69,4.64-12.79,7.9-18.72
	c5.21,9.46,5.52,21.78,17.25,25.89c10.55,3.7,23.22,1.18,33.83-0.97c19.84-4.03,54.05-12.93,51.58-39.65
	c-1.28-13.78-13.82-13.63-23.6-18.51c-5.58-2.78-17.56-19.8-6.39-21.7c11.69-1.99,22.22-1.37,32.44-8.73
	C357.9,279.6,361.57,267.66,359.06,255.53 M319.69,285.23c-5.3,0-11.07,0.76-15.15,4.48c-7.53,6.87-3.13,16.79,0.47,24.39
	c3.3,6.96,9,11.51,16.13,14.13c7.49,2.75,16.92,3.38,13.18,14.13c-5.39,15.5-26.33,19.75-40.38,22.76
	c-7.97,1.71-16.31,3.32-24.5,2.9c-10.41-0.54-11.77-7.16-15.1-15.74c-1.89-4.87-4.2-11.36-10.07-12.5
	c-7-1.36-10.54,5.21-12.73,10.61c-2.7,6.66-3.77,15.63-11.96,17.19c-8.41,1.61-17.69-0.28-25.94-1.94
	c-13.77-2.78-36.09-6.76-42.21-21.63c-3.96-9.64,1.14-12.17,9.24-14.66c7.65-2.35,14.42-6.14,18.46-13.32
	c3.82-6.8,8.35-16.26,3.67-23.68c-3.51-5.58-10.43-7.06-16.58-7.11c-16.22-0.15-34.14-8.69-30.21-27.64
	c1.6-7.73,6.12-14.06,13.69-16.84c8.14-2.99,14.31-0.44,22.34,0.29c6.32,0.58,13.66-2.09,14.8-9.08
	c1.29-7.91-7.98-15.86-11.31-22.44c-16.99-33.56-5.79-75.53,25.39-96.39c30.07-20.11,71.43-15.27,96.23,10.96
	c14.25,15.07,21.64,35.63,20.35,56.32c-0.68,10.87-3.75,21.56-8.96,31.12c-3.68,6.74-13.62,14.97-9.29,23.41
	c4.53,8.83,14.39,5.42,21.88,4.34c8.96-1.29,19.37,1.51,24.5,9.42c4.87,7.5,6.11,18.97,0.2,26.22
	C339.83,282.32,328.86,285.23,319.69,285.23"/>
<circle class="st2" cx="197.71" cy="186.04" r="17.66"/>
<path class="st2" d="M269.78,186.04c0,9.75,7.9,17.66,17.66,17.66c9.75,0,17.66-7.9,17.66-17.66s-7.9-17.66-17.66-17.66
	C277.69,168.39,269.78,176.29,269.78,186.04z"/>
<path class="st3" d="M265.61,173.38c0,3.45,2.79,6.24,6.24,6.24c3.45,0,6.24-2.79,6.24-6.24c0-3.44-2.79-6.24-6.24-6.24
	C268.4,167.15,265.61,169.94,265.61,173.38z"/>
<path class="st3" d="M219.54,173.38c0,3.45-2.79,6.24-6.24,6.24c-3.45,0-6.24-2.79-6.24-6.24c0-3.44,2.79-6.24,6.24-6.24
	C216.75,167.15,219.54,169.94,219.54,173.38z"/>
<path class="st4" d="M280.12,224.55c-6.7-2.44-12.93,0.67-23.74,11.47c-3.23-4.06-8.21-6.66-13.81-6.66
	c-5.59,0-10.58,2.6-13.81,6.66c-10.81-10.8-17.04-13.91-23.74-11.47c-6.7,2.44-8.73,9.83-8.73,22.47c0,12.63,2.03,20.03,8.73,22.47
	c6.7,2.44,12.93-0.67,23.73-11.47c3.23,4.05,8.22,6.66,13.81,6.66c5.59,0,10.58-2.6,13.81-6.66c10.8,10.8,17.03,13.91,23.73,11.47
	c6.7-2.44,8.73-9.83,8.73-22.47C288.84,234.38,286.82,226.99,280.12,224.55z"/>
<path class="st4" d="M256.39,258.02c-3.24,4.05-8.22,6.66-13.81,6.66c-5.59,0-10.58-2.6-13.81-6.66c-2.41-3.02-3.84-6.84-3.84-11
	c0-4.16,1.44-7.98,3.85-11c3.23-4.06,8.21-6.66,13.81-6.66c5.59,0,10.58,2.6,13.81,6.66c2.41,3.02,3.85,6.84,3.85,11
	C260.23,251.18,258.79,255.01,256.39,258.02z"/>
<path class="st1" d="M279.79,188.32c-3.01-1.24-6.45,0.19-7.68,3.2c-1.41,3.42-3.34,6.05-5.62,8.2c-1.71,1.61-3.64,2.94-5.69,4.03
	c-3.08,1.64-6.45,2.73-9.67,3.39c-3.22,0.66-6.29,0.9-8.67,0.9c-2.12,0-4.78-0.18-7.6-0.69c-2.12-0.38-4.33-0.94-6.5-1.72
	c-3.26-1.18-6.39-2.84-9.06-5.12c-1.34-1.14-2.56-2.43-3.65-3.91c-1.09-1.48-2.05-3.15-2.84-5.08c-1.24-3.01-4.68-4.44-7.68-3.2
	c-3.01,1.24-4.44,4.68-3.2,7.68c2.05,4.99,5.02,9.09,8.44,12.3c2.56,2.41,5.37,4.33,8.23,5.85c4.3,2.28,8.72,3.68,12.83,4.52
	c4.11,0.84,7.91,1.14,11.04,1.14c2.78,0,6.09-0.23,9.68-0.88c2.69-0.48,5.54-1.2,8.42-2.24c4.32-1.56,8.73-3.86,12.69-7.23
	c1.98-1.69,3.84-3.64,5.49-5.88c1.65-2.24,3.1-4.77,4.25-7.58C284.23,193,282.8,189.56,279.79,188.32z"/>
<circle class="st1" cx="242.57" cy="287.93" r="17.66"/>
</svg>
